<?xml version="1.0" encoding="iso-8859-1"?>
<!-- Generator: Adobe Illustrator 19.0.0, SVG Export Plug-In . SVG Version: 6.00 Build 0)  -->
<svg version="1.1" id="Layer_1" xmlns="http://www.w3.org/2000/svg" xmlns:xlink="http://www.w3.org/1999/xlink" x="0px" y="0px"
	 viewBox="0 0 496.158 496.158" style="enable-background:new 0 0 496.158 496.158;" xml:space="preserve">
<path style="fill:#004972;" d="M0,248.084C0,111.063,111.07,0.001,248.076,0.001c137.012,0,248.082,111.062,248.082,248.082
	c0,137.005-111.07,248.074-248.082,248.074C111.07,496.157,0,385.088,0,248.084z"/>
<path style="fill:#F2F2F2;" d="M371.999,195.969c-28.345-2.362-39.175-19.086-41.503-23.373c0.259-8.603,0.376-17.869,0.376-27.917
	c0-70.532-38.852-86.779-86.778-86.779s-86.779,13.835-86.779,86.779c0,8.3,0.26,18.645,0.817,30.254
	c-2.027,3.368-12.738,18.625-41.671,21.036c-27.868,2.322-45.265,13.771-42.051,29.843c4.069,20.347,29.364,40.792,52.901,32.554
	c16.61-5.813,30.286,1.363,40.683,12.259c3.758,22.238,8.631,42.792,14.81,58.003c27.163,66.873,100.384,98.218,192.629,17.73
	c-51.549,14.47-66.733,12.254-79.282-9.948c-15.676-27.733-4.522-43.861,12.058-60.894c11.7-12.02,30.748-27.131,52.94-17.151
	c22.744,10.229,48.833-12.208,52.902-32.554C417.265,209.739,399.867,198.291,371.999,195.969z"/>
<g>
	<ellipse style="fill:#969696;" cx="216.659" cy="129.089" rx="16.804" ry="19.818"/>
	<ellipse style="fill:#969696;" cx="271.529" cy="129.089" rx="16.805" ry="19.818"/>
	<ellipse style="fill:#969696;" cx="244.089" cy="185.379" rx="20.351" ry="31.12"/>
</g>
<ellipse style="fill:#140F2B;" cx="249.609" cy="438.589" rx="65.25" ry="15.749"/>
<g>
</g>
<g>
</g>
<g>
</g>
<g>
</g>
<g>
</g>
<g>
</g>
<g>
</g>
<g>
</g>
<g>
</g>
<g>
</g>
<g>
</g>
<g>
</g>
<g>
</g>
<g>
</g>
<g>
</g>
</svg>
